<?xml version="1.0" standalone="no"?>
<!DOCTYPE svg PUBLIC "-//W3C//DTD SVG 20010904//EN"
 "http://www.w3.org/TR/2001/REC-SVG-20010904/DTD/svg10.dtd">
<svg version="1.0" xmlns="http://www.w3.org/2000/svg"
 width="105.000000pt" height="27.000000pt" viewBox="0 0 1855.000000 603.000000"
 preserveAspectRatio="xMidYMid meet">
<metadata>
Created by potrace 1.15, written by Peter Selinger 2001-2017
</metadata>
<g transform="translate(0.000000,603.000000) scale(0.100000,-0.100000)"
fill="#D8D8D8" stroke="none">
<path d="M15905 5400 c-519 -59 -912 -286 -1084 -626 -47 -93 -73 -168 -98
-284 -15 -72 -18 -132 -18 -405 0 -345 2 -359 61 -516 82 -218 269 -410 563
-579 182 -104 256 -129 967 -339 574 -169 694 -217 931 -374 228 -150 363
-331 406 -542 16 -83 5 -149 -42 -252 -142 -303 -485 -534 -916 -617 -259 -49
-487 -59 -722 -32 -349 41 -604 134 -824 301 l-72 55 -113 0 -112 0 -81 -89
-81 -89 0 -119 0 -120 52 -44 c155 -131 309 -207 555 -274 134 -37 334 -77
483 -97 131 -17 782 -17 955 0 563 57 952 233 1197 541 71 88 149 246 178 356
52 203 52 617 0 826 -59 238 -208 442 -450 615 -247 178 -376 227 -1230 469
-356 101 -481 145 -645 227 -350 175 -525 362 -579 619 -11 55 -12 80 -1 148
75 465 419 725 1020 771 283 22 669 -51 909 -172 90 -45 210 -125 246 -163 23
-24 28 -25 151 -25 l127 0 76 84 76 83 0 121 0 120 -62 55 c-215 186 -500 298
-898 353 -135 18 -797 28 -925 14z"/>
<path d="M5812 5383 c-5 -10 -455 -1071 -1001 -2358 l-991 -2340 0 -117 c0
-106 2 -118 19 -128 12 -6 112 -10 254 -10 l235 0 139 327 c77 181 440 1036
808 1901 368 865 672 1569 676 1565 5 -6 1316 -3085 1396 -3280 4 -10 -243
-13 -1214 -13 l-1219 0 -32 -33 -32 -33 0 -187 0 -187 33 -30 32 -29 1562 -1
c859 0 1568 3 1577 6 13 5 16 27 16 133 l0 127 -991 2339 c-545 1287 -996
2346 -1001 2353 -7 8 -47 12 -134 12 -107 0 -124 -2 -132 -17z"/>
<path d="M2847 5322 l-26 -27 -4 -1725 c-3 -1538 -5 -1736 -20 -1825 -46 -282
-133 -491 -265 -637 -87 -96 -266 -186 -435 -219 -86 -17 -112 -18 -181 -9
-309 42 -561 139 -767 295 l-72 55 -103 0 -102 0 -81 -89 -81 -89 0 -109 0
-110 52 -44 c196 -165 427 -260 810 -333 212 -40 315 -49 507 -43 183 6 299
21 426 57 406 114 660 443 734 950 28 190 31 406 31 2106 l0 1760 -33 32 -33
32 -165 0 -165 0 -27 -28z"/>
<path d="M13201 5304 l-31 -26 0 -2392 0 -2392 28 -27 28 -27 177 0 176 0 30
33 31 32 0 2380 0 2380 -31 33 -30 32 -174 0 c-172 0 -174 0 -204 -26z"/>
<path d="M8772 5296 l-32 -28 0 -2388 0 -2388 32 -28 33 -27 520 6 c540 6 674
14 915 57 449 80 839 251 1155 505 102 83 249 229 326 325 237 296 384 667
434 1097 20 175 21 730 0 903 -52 442 -199 806 -452 1120 -68 84 -239 253
-323 319 -323 255 -727 425 -1193 501 -204 33 -356 41 -862 47 l-520 6 -33
-27z m958 -471 c472 -54 820 -172 1140 -386 450 -302 721 -736 805 -1292 35
-229 30 -394 -21 -647 -97 -488 -341 -864 -749 -1155 -382 -273 -915 -425
-1494 -425 -144 0 -145 0 -173 27 l-28 27 0 1895 0 1895 26 38 27 38 166 0
c91 0 227 -7 301 -15z"/>
</g>
</svg>
