<?xml version="1.0" standalone="no"?>
<!DOCTYPE svg PUBLIC "-//W3C//DTD SVG 20010904//EN"
 "http://www.w3.org/TR/2001/REC-SVG-20010904/DTD/svg10.dtd">
<svg version="1.0" xmlns="http://www.w3.org/2000/svg"
 width="20.000000pt" height="20.000000pt" viewBox="0 0 580.000000 580.000000"
 preserveAspectRatio="xMidYMid meet">
<metadata>
Created by potrace 1.15, written by Peter Selinger 2001-2017
</metadata>
<g transform="translate(0.000000,580.000000) scale(0.100000,-0.100000)"
fill="#222222" stroke="none">
<path d="M2390 5484 c-398 -35 -758 -159 -1075 -369 -331 -220 -569 -495 -751
-868 -363 -747 -273 -1625 237 -2304 309 -410 817 -717 1354 -817 357 -67 796
-28 1145 101 119 44 306 136 407 202 l78 50 560 -558 c609 -606 604 -602 734
-621 131 -18 249 21 339 114 92 95 130 208 112 337 -19 130 -14 125 -621 734
l-558 560 48 75 c306 475 410 1077 285 1648 -64 289 -208 603 -386 844 -339
455 -868 769 -1443 853 -109 15 -377 27 -465 19z m365 -809 c300 -43 557 -177
788 -411 265 -268 396 -590 397 -972 0 -386 -126 -695 -399 -975 -297 -306
-639 -441 -1074 -424 -351 13 -646 142 -901 394 -195 193 -321 403 -382 637
-58 222 -58 510 0 732 100 383 400 737 776 913 225 105 523 145 795 106z"/>
</g>
</svg>
